<svg xmlns="http://www.w3.org/2000/svg" viewBox="0 0 36 36" fill="none">
  <rect width="36" height="36" rx="8" fill="#003d9b"/>
  <!-- Rocket body -->
  <path d="M18 6c-3.5 4-5.5 9-5.5 14h11C23.5 15 21.5 10 18 6z" fill="white"/>
  <!-- Fins -->
  <path d="M12.5 20c-2 1.5-3 3.5-3 5.5l4-2.5v-3z" fill="white" opacity="0.7"/>
  <path d="M23.5 20c2 1.5 3 3.5 3 5.5l-4-2.5v-3z" fill="white" opacity="0.7"/>
  <!-- Window -->
  <circle cx="18" cy="16" r="2.5" fill="#003d9b"/>
  <!-- Flame -->
  <path d="M15.5 24c0 0 1.2 5 2.5 5s2.5-5 2.5-5h-5z" fill="#F59E0B"/>
  <path d="M16.5 24c0 0 .8 3.5 1.5 3.5s1.5-3.5 1.5-3.5h-3z" fill="#FB923C"/>
</svg>
